HIERARCHY
ROOT SimulationBone
{
	OFFSET 0.000000 0.000000 0.000000
	CHANNELS 6 Xposition Yposition Zposition Zrotation Yrotation Xrotation 
	JOINT Hips
	{
		OFFSET 0.000000 0.000000 0.000000
		CHANNELS 6 Xposition Yposition Zposition Zrotation Yrotation Xrotation 
		JOINT LeftUpLeg
		{
			OFFSET 0.103458 1.857831 10.548505
			CHANNELS 3 Zrotation Yrotation Xrotation
			JOINT LeftLeg
			{
				OFFSET 43.500000 -0.000031 0.000002
				CHANNELS 3 Zrotation Yrotation Xrotation
				JOINT LeftFoot
				{
					OFFSET 42.372200 0.000023 0.000003
					CHANNELS 3 Zrotation Yrotation Xrotation
					JOINT LeftToe
					{
						OFFSET 17.299997 -0.000001 -0.000010
						CHANNELS 3 Zrotation Yrotation Xrotation
						End Site
						{
							OFFSET 0.000000 0.000000 0.000000
						}
					}
				}
			}
		}
		JOINT RightUpLeg
		{
			OFFSET 0.103457 1.857828 -10.548510
			CHANNELS 3 Zrotation Yrotation Xrotation
			JOINT RightLeg
			{
				OFFSET 43.500046 -0.000015 0.000002
				CHANNELS 3 Zrotation Yrotation Xrotation
				JOINT RightFoot
				{
					OFFSET 42.372261 -0.000008 0.000023
					CHANNELS 3 Zrotation Yrotation Xrotation
					JOINT RightToe
					{
						OFFSET 17.299990 -0.000007 -0.000002
						CHANNELS 3 Zrotation Yrotation Xrotation
						End Site
						{
							OFFSET 0.000000 0.000000 0.000000
						}
					}
				}
			}
		}
		JOINT Spine
		{
			OFFSET 6.901967 -2.603726 -0.000001
			CHANNELS 3 Zrotation Yrotation Xrotation
			JOINT Spine1
			{
				OFFSET 12.588100 -0.000009 -0.000003
				CHANNELS 3 Zrotation Yrotation Xrotation
				JOINT Spine2
				{
					OFFSET 12.343202 0.000008 0.000008
					CHANNELS 3 Zrotation Yrotation Xrotation
					JOINT Neck
					{
						OFFSET 25.832897 -0.000015 -0.000004
						CHANNELS 3 Zrotation Yrotation Xrotation
						JOINT Head
						{
							OFFSET 11.766609 0.000013 -0.000006
							CHANNELS 3 Zrotation Yrotation Xrotation
							End Site
							{
								OFFSET 0.000000 0.000000 0.000000
							}
						}
					}
					JOINT LeftShoulder
					{
						OFFSET 19.745911 -1.480373 6.000098
						CHANNELS 3 Zrotation Yrotation Xrotation
						JOINT LeftArm
						{
							OFFSET 11.284123 -0.000007 -0.000032
							CHANNELS 3 Zrotation Yrotation Xrotation
							JOINT LeftForeArm
							{
								OFFSET 33.000050 0.000005 0.000031
								CHANNELS 3 Zrotation Yrotation Xrotation
								JOINT LeftHand
								{
									OFFSET 25.200008 0.000017 0.000013
									CHANNELS 3 Zrotation Yrotation Xrotation
									End Site
									{
										OFFSET 0.000000 0.000000 0.000000
									}
								}
							}
						}
					}
					JOINT RightShoulder
					{
						OFFSET 19.746092 -1.480379 -6.000077
						CHANNELS 3 Zrotation Yrotation Xrotation
						JOINT RightArm
						{
							OFFSET 11.284136 -0.000017 -0.000017
							CHANNELS 3 Zrotation Yrotation Xrotation
							JOINT RightForeArm
							{
								OFFSET 33.000099 0.000019 0.000015
								CHANNELS 3 Zrotation Yrotation Xrotation
								JOINT RightHand
								{
									OFFSET 25.199780 0.000140 0.000408
									CHANNELS 3 Zrotation Yrotation Xrotation
									End Site
									{
										OFFSET 0.000000 0.000000 0.000000
									}
								}
							}
						}
					}
				}
			}
		}
	}
}
MOTION
Frames: 11
Frame Time: 0.016667
-290.041379 0.000000 522.798996 180.000000 80.944540 180.000000 -3.987690 88.770295 -1.538799 87.647825 -2.962546 179.156058 143.624723 -2.231575 -179.896654 -50.935226 -0.368445 -10.339078 69.506570 5.524411 -5.862781 21.454549 0.003078 -0.000002 -176.489111 -5.242547 174.631346 -20.356970 4.520824 7.354879 92.368206 -6.162422 -8.707561 21.454557 -0.003104 -0.000017 8.661051 -0.119938 1.891990 7.303406 -0.358809 3.772614 6.986058 -0.335896 3.774715 -1.976216 -11.724492 -9.169324 -19.005800 13.574841 -16.932182 -160.511680 -75.082583 -21.421488 -21.175510 61.613056 19.200371 -61.621958 -16.787980 2.284814 0.228941 -12.909688 33.934025 -169.901272 73.553918 11.769484 -16.062541 -59.366438 -29.801716 -61.457029 18.356730 -2.417930 -1.693088 4.333509 -25.499979 
-290.432955 0.000000 521.169645 180.000000 82.161209 180.000000 -4.203133 88.656158 -1.574317 87.424624 -3.180123 179.707162 143.630421 -1.591593 179.016362 -43.901603 -0.371734 -9.273073 68.569682 4.396648 -6.858467 21.454553 0.003079 -0.000002 -175.411580 -4.476907 174.474887 -19.797180 4.817615 6.948131 92.463958 -5.908400 -8.788019 21.454558 -0.003102 -0.000017 8.745093 -0.142580 1.865140 7.470843 -0.405090 3.717171 7.153462 -0.382500 3.719549 -2.170216 -11.605907 -8.999631 -18.599244 13.425906 -16.633437 -160.972190 -75.281392 -20.947602 -20.487382 61.226818 20.739039 -58.046785 -17.395928 2.189291 1.601319 -12.825582 30.961216 -170.999304 73.675218 10.643333 -17.637033 -58.692094 -28.054132 -64.226385 17.681847 -2.478515 -2.650480 3.051042 -28.416175 
-290.802907 0.000000 519.515817 180.000000 83.368582 180.000000 -4.487597 88.628479 -1.570559 87.065617 -3.461535 -179.690839 143.878283 -0.779546 178.277933 -36.154667 -0.739649 -7.752825 67.016142 3.113606 -7.198201 21.454553 0.003085 -0.000001 -174.412330 -3.702961 174.273049 -19.016198 5.029604 6.612622 92.269594 -5.723639 -8.835631 21.454559 -0.003103 -0.000016 8.804795 -0.180337 1.843669 7.589144 -0.481036 3.671550 7.271744 -0.458721 3.674387 -2.257680 -11.311602 -8.781295 -18.258506 13.186129 -16.217823 -161.482104 -75.459252 -20.423801 -20.713044 60.782757 21.680042 -53.571233 -17.672076 2.048743 3.571870 -11.603222 27.987983 -172.419172 73.795767 9.187625 -19.049066 -57.997427 -26.481550 -66.628937 17.039313 -2.529586 -2.962533 2.147237 -30.656663 
-291.153348 0.000000 517.835780 180.000000 84.563403 180.000000 -4.730913 88.571190 -1.551245 86.676829 -3.673083 -179.132185 144.345611 -0.040002 178.024345 -28.356971 -1.387015 -5.911726 65.318013 1.496667 -7.663217 21.454553 0.003093 0.000000 -173.455099 -3.007611 173.946750 -18.321783 5.234210 6.345607 92.002545 -5.585687 -8.847981 21.454560 -0.003108 -0.000016 8.846136 -0.214326 1.855191 7.670681 -0.550993 3.692118 7.353293 -0.528561 3.695378 -2.227489 -11.024504 -8.563258 -17.954226 12.951870 -15.803125 -162.318106 -75.579646 -19.567515 -21.398362 60.148112 22.610171 -48.629880 -17.546773 1.875957 5.787627 -9.520310 25.008944 -173.705699 73.907847 7.869175 -20.320006 -57.377316 -25.067659 -68.635491 16.437682 -2.570823 -2.809680 1.621871 -32.158545 
-291.486894 0.000000 516.128520 180.000000 85.739011 180.000000 -4.833464 88.376711 -1.546895 86.380638 -3.699970 -178.705654 144.990682 0.396224 178.194994 -21.291021 -2.046549 -3.906572 64.177516 -0.522355 -8.882352 21.454551 0.003097 0.000001 -172.507338 -2.467356 173.482316 -18.032708 5.491024 6.115818 91.857271 -5.456082 -8.829135 21.454559 -0.003114 -0.000017 8.878112 -0.228211 1.919655 7.733774 -0.584027 3.819788 7.416437 -0.560835 3.823245 -2.082360 -10.912609 -8.390435 -17.638311 12.824981 -15.499630 -163.696230 -75.621156 -18.157896 -22.086031 59.251283 24.031828 -43.671321 -17.022266 1.691553 7.860046 -7.014803 22.068890 -174.485869 74.019970 7.070263 -21.479495 -56.932998 -23.755956 -70.202664 15.880158 -2.597771 -2.492152 1.394018 -32.831363 
-291.806651 0.000000 514.394185 180.000000 86.885991 180.000000 -4.872267 88.140404 -1.541904 86.178663 -3.632640 -178.400161 145.620438 0.714093 178.546896 -15.759587 -2.480836 -2.159123 64.246992 -2.063001 -9.542601 21.454551 0.003097 0.000001 -171.630141 -2.049398 172.928191 -18.113783 5.708844 5.946336 91.573445 -5.371802 -8.772600 21.454558 -0.003115 -0.000019 8.910323 -0.241156 2.005030 7.797191 -0.616670 3.989271 7.479919 -0.592459 3.992920 -1.889081 -10.825913 -8.227941 -17.314639 12.725687 -15.217912 -165.182578 -75.600327 -16.638099 -22.775222 58.399563 25.316027 -38.644881 -16.165548 1.498749 9.614469 -4.258431 19.914740 -175.006003 74.207809 6.538848 -22.657565 -56.732072 -22.465809 -71.176075 15.432411 -2.606339 -2.253580 1.294419 -32.586589 
-292.114593 0.000000 512.634966 180.000000 87.997581 180.000000 -4.943351 87.970940 -1.510435 86.037282 -3.589622 -178.182581 146.014428 1.147180 178.849830 -12.489285 -2.450585 -1.020361 65.715852 -2.352266 -8.425318 21.454551 0.003093 0.000001 -170.900964 -1.696187 172.368109 -18.487862 5.789364 5.849035 90.900646 -5.362591 -8.686999 21.454557 -0.003109 -0.000020 8.949588 -0.278375 2.073963 7.873944 -0.697037 4.124205 7.556717 -0.672001 4.128333 -1.730585 -10.576545 -8.028160 -16.977111 12.564058 -14.846100 -166.321534 -75.554332 -15.473538 -23.461973 57.875943 25.800045 -33.547057 -15.064586 1.302447 11.084293 -1.367570 19.338559 -175.603262 74.515918 5.929989 -23.969593 -56.790154 -21.153603 -71.440256 15.171996 -2.598338 -2.240768 1.186076 -31.436099 
-292.411475 0.000000 510.853750 180.000000 89.069752 180.000000 -5.057297 87.827293 -1.459912 85.928765 -3.607390 -178.047767 145.999609 1.683389 179.093653 -11.819966 -2.085095 -0.370852 67.350801 -2.025794 -6.573894 21.454551 0.003090 0.000001 -170.369793 -1.350997 171.962266 -19.267629 5.750414 5.732915 90.083289 -5.357165 -8.650625 21.454558 -0.003107 -0.000020 8.991137 -0.353847 2.119898 7.954004 -0.852394 4.210528 7.636799 -0.826826 4.215589 -1.694630 -10.143377 -7.774868 -16.520170 12.394334 -14.376701 -167.199601 -75.521480 -14.575599 -23.908041 57.512725 25.625704 -29.074714 -13.850335 1.138339 12.672244 1.650339 20.679410 -176.281390 74.818373 5.238892 -25.356617 -56.964442 -19.962589 -71.143926 15.161352 -2.586043 -2.280558 1.134374 -29.785371 
-292.699618 0.000000 509.051110 0.000000 89.901321 0.000000 -5.193614 87.662039 -1.402357 85.840085 -3.691430 -178.012370 145.526448 2.247983 179.275325 -13.690188 -1.600423 -0.038779 67.957438 -1.762777 -5.246024 21.454550 0.003091 0.000000 -170.063078 -0.958200 171.871631 -20.562881 5.635891 5.473143 89.309736 -5.270918 -8.754152 21.454560 -0.003117 -0.000017 9.029040 -0.475194 2.146173 8.025229 -1.097905 4.254373 7.708025 -1.072076 4.260914 -1.808255 -9.532349 -7.477344 -15.888942 12.247131 -13.825834 -168.011380 -75.532263 -13.745289 -23.828425 57.104691 25.237286 -25.918775 -12.697092 1.009907 14.731704 4.718259 24.252640 -176.955315 74.982439 4.551055 -26.695847 -57.127153 -19.051591 -70.460240 15.430742 -2.576088 -2.176159 1.196594 -28.078070 
-292.982329 0.000000 507.226495 0.000000 88.922200 0.000000 -5.279269 87.551872 -1.337401 85.809991 -3.808161 -178.148098 144.992020 2.761594 179.219519 -16.758460 -0.971080 0.084721 67.957574 -1.479057 -4.165175 21.454551 0.003094 0.000000 -169.942538 -0.457511 172.181979 -22.281320 5.483425 4.909073 88.047428 -5.059291 -9.063491 21.454562 -0.003123 -0.000016 9.064249 -0.635873 2.164907 8.089719 -1.421348 4.280355 7.772491 -1.395367 4.288846 -1.853429 -8.694555 -7.206754 -15.337670 11.922033 -13.204109 -168.833615 -75.602486 -12.904282 -22.928517 56.722219 25.529453 -24.084215 -11.882148 0.928677 16.995220 7.462671 30.560297 -177.623413 75.014024 3.867759 -27.870150 -57.344231 -18.368850 -69.402077 15.896936 -2.564804 -1.981400 1.230286 -26.517230 
-293.260029 0.000000 505.380844 0.000000 87.997660 0.000000 -5.257138 87.568095 -1.268516 85.869580 -3.929039 -178.507272 144.790969 3.157430 178.907283 -19.644352 -0.206649 0.013015 68.019731 -0.998806 -2.943440 21.454552 0.003098 0.000001 -170.000999 0.190259 172.884924 -24.367519 5.308196 3.960667 85.806156 -4.708810 -9.497243 21.454560 -0.003110 -0.000018 9.097382 -0.824100 2.183166 8.149105 -1.799705 4.303383 7.831823 -1.773576 4.314154 -1.631207 -7.665600 -7.000996 -15.098513 11.299688 -12.536131 -169.640877 -75.711470 -12.078806 -21.066955 56.433858 27.217450 -23.392257 -11.630977 0.905015 19.067927 9.549218 39.474852 -178.336896 74.960041 3.136849 -28.792929 -57.704307 -17.804103 -67.974005 16.454364 -2.546096 -1.752741 1.125807 -25.221825 
